<?xml version="1.0" encoding="UTF-8"?>
<svg version="1.1" xmlns="http://www.w3.org/2000/svg" width="1024" height="1024">
<path d="M0 0 C3.54690148 2.80575789 6.79814997 5.8088228 10 9 C10.7115625 9.68835938 11.423125 10.37671875 12.15625 11.0859375 C19.57957846 18.76622733 26.84741558 30.7737742 27.05029297 41.71142578 C27.03369629 42.46665527 27.01709961 43.22188477 27 44 C27.81960205 43.97933472 27.81960205 43.97933472 28.65576172 43.95825195 C36.52372292 43.85175502 44.29304463 44.50329267 52.125 45.1875 C53.64816934 45.31709572 55.17136362 45.44639869 56.69458008 45.57543945 C66.96759198 46.45176885 77.23579823 47.38074157 87.50390625 48.3125 C90.03564379 48.54143068 92.56738208 48.77035318 95.09912109 48.99926758 C100.10644956 49.45223354 105.1131732 49.91127641 110.11962891 50.3737793 C112.4586444 50.58658469 114.79767375 50.79923788 117.13671875 51.01171875 C118.2010463 51.11158081 119.26537384 51.21144287 120.36195374 51.31433105 C126.27070429 51.846242 132.06727072 52.09749792 138 52 C138.40089844 51.17757812 138.80179688 50.35515625 139.21484375 49.5078125 C146.34314678 35.50982967 156.48687178 23.66006653 171.50390625 17.8828125 C185.24154989 14.41386562 200.21695596 16.89183198 212.4375 23.875 C213.97550716 24.8911385 215.49816402 25.93112575 217 27 C217.93392578 27.62455078 217.93392578 27.62455078 218.88671875 28.26171875 C226.33349509 33.83425026 232.34852722 44.01910888 234.59765625 53.015625 C236.88969261 70.01674907 234.39710041 84.04133966 224 98 C216.38872978 107.57970218 204.37537399 113.92376871 192.25219727 115.31542969 C189.38951121 115.47201595 186.55433294 115.51873276 183.6875 115.5 C182.17627563 115.49250732 182.17627563 115.49250732 180.63452148 115.48486328 C167.82067227 115.18573938 158.10405275 110.91780417 148.9140625 101.96875 C142.0863754 94.76033686 138.30593818 87.84454333 137 78 C135.44732422 77.93304932 135.44732422 77.93304932 133.86328125 77.86474609 C118.87709193 77.1704902 103.94629743 75.89763265 89 74.625 C86.33110191 74.399585 83.6621308 74.17503992 80.99316406 73.95043945 C73.32840071 73.30469466 65.6641535 72.65293827 58 72 C55.93554774 71.82437137 53.87109468 71.64875214 51.80664062 71.47314453 C42.2038263 70.65568544 32.60151332 69.83261503 23 69 C22.82404297 69.65154053 22.64808594 70.30308105 22.46679688 70.97436523 C21.0113373 76.12405101 19.46163173 80.54860953 16.5 85.0625 C15.9121875 85.98160156 15.324375 86.90070313 14.71875 87.84765625 C13 90 13 90 10 91 C16.0667012 100.45207027 22.15513372 109.88986806 28.26293945 119.31542969 C29.60720527 121.39294858 30.94915891 123.47189833 32.28979492 125.55175781 C39.35075633 136.49728116 46.49769853 147.38492697 53.6706543 158.25732422 C55.564492 161.12801948 57.45713462 163.99949984 59.34960938 166.87109375 C65.07846485 175.56080519 70.81936889 184.24187933 76.60142517 192.89628601 C80.48548205 198.7154385 84.31087242 204.57230585 88.125 210.4375 C88.7953125 211.46681641 89.465625 212.49613281 90.15625 213.55664062 C91.77155702 216.0372907 93.38614052 218.51840805 95 221 C95.76473633 220.78851318 96.52947266 220.57702637 97.31738281 220.35913086 C103.53798203 218.70905444 109.30841717 217.46848408 115.75 217.5625 C116.50804932 217.57007324 117.26609863 217.57764648 118.04711914 217.58544922 C134.66752296 218.05908319 148.88025576 223.71464821 160.421875 235.8828125 C171.37494767 248.61799729 176.4370014 264.24802945 175.22753906 280.921875 C173.60016608 295.78474928 166.21706296 306.60242356 156 317 C155.43539063 317.5775 154.87078125 318.155 154.2890625 318.75 C143.6187455 328.74366275 128.82338548 332.69851376 114.51953125 332.3515625 C101.58561075 331.05960596 89.9626781 325.09815455 80 317 C79.19820312 317.63164063 78.39640625 318.26328125 77.5703125 318.9140625 C64.15547697 329.47335413 50.69071548 339.96540922 37.11401367 350.31591797 C32.71404776 353.67514733 28.34497912 357.07001648 24 360.5 C18.6016541 364.75285867 13.18798858 368.98541792 7.75 373.1875 C6.64011719 374.05375 6.64011719 374.05375 5.5078125 374.9375 C4.81945312 375.46730469 4.13109375 375.99710938 3.421875 376.54296875 C2.80924805 377.01758545 2.19662109 377.49220215 1.56542969 377.98120117 C0 379 0 379 -2 379 C-1.71125 379.66902344 -1.4225 380.33804687 -1.125 381.02734375 C3.15022476 392.08651891 3.9806359 403.61580367 -0.0625 414.875 C-6.76963885 429.92379054 -15.62415727 439.69710885 -31 446 C-42.72748472 449.97243124 -55.05275169 448.95415653 -66.25390625 444.00390625 C-79.85337924 437.16869287 -88.40896018 425.67824644 -93.2734375 411.5078125 C-96.53960411 400.2342697 -95.78999045 389.65332325 -91 379 C-90.45242061 377.72872696 -89.90691941 376.45655717 -89.36328125 375.18359375 C-88.91339844 374.13300781 -88.46351563 373.08242188 -88 372 C-93.64989974 364.78191942 -99.32163834 357.5835263 -105.0625 350.4375 C-108.82719437 345.74994987 -112.53902405 341.0285475 -116.1875 336.25 C-119.91021141 331.37505577 -123.74805804 326.60949582 -127.65234375 321.87890625 C-130.3111387 318.61845387 -132.90910619 315.31444448 -135.5 312 C-142.56618766 302.97294832 -149.83795292 294.13049219 -157.28320312 285.41381836 C-159.61766276 282.67304996 -161.88129432 279.91146642 -164 277 C-168.80344705 278.0335045 -173.25861766 280.0300863 -177.80859375 281.84375 C-189.51606417 286.08537943 -202.71387762 284.96706948 -214 280 C-226.34069831 273.23365121 -233.99514135 262.85932826 -238.8125 249.796875 C-242.56584188 236.13888093 -240.35166299 219.90694757 -233.6875 207.5703125 C-225.21816301 194.67025755 -213.24782293 185.67699538 -198.25 181.62109375 C-185.36436773 179.15857508 -172.35649296 181.54238636 -161 188 C-160.77441406 187.46503906 -160.54882812 186.93007813 -160.31640625 186.37890625 C-158.57353921 183.22933348 -156.28798202 180.63995369 -153.9375 177.9375 C-152.93798808 176.77413636 -151.93930205 175.61006269 -150.94140625 174.4453125 C-150.44398926 173.86555664 -149.94657227 173.28580078 -149.43408203 172.68847656 C-147.37366853 170.26256241 -145.37481459 167.78846092 -143.375 165.3125 C-139.80184368 160.91917078 -136.0637577 156.7157897 -132.25 152.53125 C-129.92137947 149.9115519 -127.70437053 147.2248469 -125.5 144.5 C-121.88967558 140.03723787 -118.11572071 135.77280467 -114.25 131.53125 C-111.92137947 128.9115519 -109.70437053 126.2248469 -107.5 123.5 C-104.5918662 119.9052235 -101.61458668 116.41739372 -98.5 113 C-94.56992683 108.68717188 -90.87569814 104.22197783 -87.21484375 99.6796875 C-84.44329297 96.32645322 -81.51376549 93.13862011 -78.53125 89.97265625 C-76.89321027 87.86242649 -76.15718171 86.66684967 -76 84 C-77.02567318 82.03965883 -77.02567318 82.03965883 -78.625 80.125 C-87.53257568 67.60456146 -89.67830712 51.73392692 -87.5390625 36.77734375 C-84.13391992 21.57438365 -75.513627 8.267905 -63 -1 C-43.41379124 -13.29702311 -19.1263906 -13.16036051 0 0 Z " fill="#E4AF3A" transform="translate(472,293)"/>
<path d="M0 0 C0.89030914 -0.00358521 1.78061829 -0.00717041 2.69790649 -0.01086426 C19.8784565 -0.04818437 36.77589392 1.47240777 53.75 4.125 C54.84207764 4.29531738 55.93415527 4.46563477 57.05932617 4.64111328 C67.45861226 6.32273861 77.63394763 8.61471239 87.8125 11.3125 C88.65554688 11.53131836 89.49859375 11.75013672 90.3671875 11.97558594 C131.2650359 22.68174762 171.01347158 41.88545615 204.8125 67.3125 C205.38709961 67.73837402 205.96169922 68.16424805 206.55371094 68.60302734 C210.36764342 71.43204319 214.11040883 74.33884022 217.8125 77.3125 C218.32748047 77.72306641 218.84246094 78.13363281 219.37304688 78.55664062 C227.77575527 85.31827618 235.48242857 92.77650893 243.125 100.375 C244.044021 101.28475586 244.96304199 102.19451172 245.90991211 103.13183594 C251.2018436 108.44814099 256.11773668 113.92775931 260.79833984 119.7902832 C262.86439494 122.37748504 264.98731716 124.90933308 267.125 127.4375 C276.13645526 138.4497504 284.02124431 150.41937734 291.8125 162.3125 C291.4825 162.9725 291.1525 163.6325 290.8125 164.3125 C278.00675676 150.60168919 278.00675676 150.60168919 274.25 146.1875 C267.13055023 137.95231557 259.19280206 130.25222121 250.8125 123.3125 C250.2664209 122.85794434 249.7203418 122.40338867 249.15771484 121.93505859 C233.76632776 109.15525015 217.90794339 97.7107268 200.8125 87.3125 C199.9035498 86.7565918 198.99459961 86.20068359 198.05810547 85.62792969 C139.06791938 49.74552558 72.2295756 29.74228158 3.0625 30 C1.487603 30.00323273 1.487603 30.00323273 -0.11911011 30.00653076 C-16.01033498 30.0587286 -31.49972962 30.57634605 -47.1875 33.3125 C-48.40066895 33.51649414 -49.61383789 33.72048828 -50.86376953 33.93066406 C-68.30169121 36.91406643 -85.36890963 40.77179616 -102.1875 46.3125 C-103.18910156 46.64088867 -104.19070313 46.96927734 -105.22265625 47.30761719 C-154.24294536 63.62189166 -205.07908462 92.0204602 -238.60546875 132.421875 C-240.45192332 134.62850219 -242.41320012 136.7078337 -244.375 138.8125 C-249.940299 144.98354583 -254.83483247 151.62597942 -259.73388672 158.328125 C-261.06360508 160.14336699 -262.40685311 161.94761237 -263.75390625 163.75 C-297.87821848 209.87736044 -317.50054481 265.67752806 -324.1875 322.3125 C-324.34436279 323.56208496 -324.34436279 323.56208496 -324.50439453 324.83691406 C-325.57927282 334.61657596 -325.4295571 344.48651598 -325.4375 354.3125 C-325.43950912 355.77814896 -325.43950912 355.77814896 -325.44155884 357.27340698 C-325.43712431 372.21640603 -324.8065887 386.80209341 -322.58886719 401.60351562 C-322.21862924 404.10239656 -321.90115392 406.60121666 -321.6015625 409.109375 C-317.78937202 438.97900866 -307.22023074 468.31963616 -294.1875 495.3125 C-293.80899902 496.09689453 -293.43049805 496.88128906 -293.04052734 497.68945312 C-283.95537946 516.25191355 -272.4281756 533.45933545 -259.1875 549.3125 C-258.70039551 549.89580078 -258.21329102 550.47910156 -257.71142578 551.08007812 C-254.25212642 555.20056705 -250.73739845 559.26992816 -247.1875 563.3125 C-246.73455566 563.83005859 -246.28161133 564.34761719 -245.81494141 564.88085938 C-240.59639696 570.81966667 -235.25860729 576.25854158 -229.1875 581.3125 C-228.23230469 582.14394531 -227.27710938 582.97539063 -226.29296875 583.83203125 C-214.74321912 593.85865876 -202.46726855 602.69543847 -189.1875 610.3125 C-188.51686523 610.69905762 -187.84623047 611.08561523 -187.15527344 611.48388672 C-154.87851652 629.85176577 -120.41088143 637.97653874 -83.5 637.75 C-82.44545624 637.74695862 -81.39091248 637.74391724 -80.30441284 637.74078369 C-64.5448431 637.6736258 -49.58672116 636.87886716 -34.1875 633.3125 C-32.19303261 632.89428388 -30.19822948 632.47766625 -28.203125 632.0625 C-4.37554817 626.90167975 18.91132753 619.01431398 40.8125 608.3125 C42.41913387 607.54788923 44.02590683 606.78357064 45.6328125 606.01953125 C77.49136683 590.67024965 107.05435428 570.91399495 133.8359375 547.85546875 C136.62235982 545.4749426 139.45457177 543.16875508 142.3125 540.875 C147.60145369 536.56860955 152.59404142 531.99091753 157.5703125 527.33203125 C159.60615494 525.42607193 161.66031026 523.55625325 163.7421875 521.69921875 C176.61363142 510.20561233 188.19524135 497.5951392 198.62158203 483.85449219 C200.41210716 481.53613287 202.30304747 479.30475997 204.1875 477.0625 C219.7169833 458.11266869 232.93015594 437.26124712 244.51123047 415.703125 C245.89579452 413.15947562 247.32180396 410.64216848 248.75390625 408.125 C255.74642064 395.70557302 261.83697961 383.01457347 267.625 370 C267.98555481 369.19266418 268.34610962 368.38532837 268.71759033 367.55352783 C269.74251468 365.25118875 270.75811434 362.94501916 271.76953125 360.63671875 C272.07823654 359.94091202 272.38694183 359.24510529 272.70500183 358.5282135 C273.96669923 355.61481134 274.8125 353.52357042 274.8125 350.3125 C271.20923211 348.8935401 267.60471929 347.47776825 264 346.0625 C262.99517578 345.66675781 261.99035156 345.27101563 260.95507812 344.86328125 C254.27645606 342.24337163 247.56686488 339.73043089 240.8125 337.3125 C241.90058056 334.04825831 242.41649773 333.58663934 245.06640625 331.6328125 C245.74767578 331.12298828 246.42894531 330.61316406 247.13085938 330.08789062 C247.87142578 329.54326172 248.61199219 328.99863281 249.375 328.4375 C255.28776141 324.00915552 261.10884707 319.50727061 266.8125 314.8125 C272.23045914 310.36545091 277.72591624 306.04570521 283.3125 301.8125 C288.9816168 297.51659519 294.55903447 293.13126885 300.0625 288.625 C306.2833938 283.53182212 312.59398746 278.59034552 318.98583984 273.71240234 C322.6708199 270.88833449 326.3346395 268.03695412 330 265.1875 C330.77069824 264.58929443 331.54139648 263.99108887 332.33544922 263.37475586 C337.30456354 259.51030483 342.21809215 255.59049818 347.0625 251.5703125 C348.8125 250.3125 348.8125 250.3125 350.8125 250.3125 C350.85213867 250.85511475 350.89177734 251.39772949 350.93261719 251.95678711 C352.97892855 279.54524737 355.64021131 307.09563994 358.9375 334.5625 C363.25777827 370.59357943 363.25777827 370.59357943 362.8125 385.3125 C355.96564529 383.24083919 349.61778972 380.49285661 343.1875 377.375 C342.28515625 376.94509766 341.3828125 376.51519531 340.453125 376.07226562 C335.44995355 373.66913881 330.59206812 371.1344094 325.8125 368.3125 C323.50923267 373.4425045 321.26187992 378.59076544 319.0703125 383.76953125 C308.08493893 409.63979475 296.05330051 434.62401835 280.8125 458.3125 C280.29445801 459.11864746 279.77641602 459.92479492 279.24267578 460.75537109 C268.49181022 477.37725222 256.91345482 493.31597762 244.27001953 508.54638672 C242.92420039 510.17714981 241.59655815 511.82034417 240.27734375 513.47265625 C236.39173616 518.31800225 232.43766368 522.89040024 227.9296875 527.16796875 C226.08997554 529.03144083 224.39631231 530.93692884 222.69140625 532.921875 C218.31108758 537.96564885 213.60750562 542.66379598 208.875 547.375 C208.01970703 548.23416016 207.16441406 549.09332031 206.28320312 549.97851562 C201.82581557 554.4291032 197.30496808 558.7356548 192.52612305 562.83959961 C190.36567021 564.696561 188.28010283 566.62969593 186.1875 568.5625 C180.54065103 573.65590588 174.58959712 578.31216587 168.57080078 582.95263672 C166.90338342 584.2422111 165.24539227 585.54289842 163.58984375 586.84765625 C141.22745754 604.39310199 116.85559736 618.95591758 91.8125 632.3125 C90.98878906 632.75190918 90.16507813 633.19131836 89.31640625 633.64404297 C55.24528763 651.49545288 16.68611406 661.96489669 -21.1875 667.3125 C-22.55986816 667.50948486 -22.55986816 667.50948486 -23.95996094 667.71044922 C-58.48705128 672.39955692 -94.31578631 669.84379526 -128.1875 662.3125 C-94.38456537 674.95432391 -61.16354275 684.94968227 -25.1875 689.3125 C-24.21481926 689.43627266 -24.21481926 689.43627266 -23.2224884 689.56254578 C-17.78576297 690.21938473 -12.42310884 690.49907234 -6.94921875 690.55078125 C-6.08294357 690.56052979 -5.2166684 690.57027832 -4.32414246 690.58032227 C68.83446108 691.23110182 138.64113363 673.51037511 199.8125 632.3125 C200.53872559 631.82426758 201.26495117 631.33603516 202.01318359 630.83300781 C212.07560441 624.0138466 221.63231318 616.66899364 230.94970703 608.86669922 C232.67266236 607.42917188 234.41001511 606.01157699 236.15234375 604.59765625 C243.88448851 598.23942401 251.03037303 591.30379181 258.125 584.25 C259.0442627 583.34000244 259.96352539 582.43000488 260.91064453 581.49243164 C266.96984252 575.40531865 272.48311901 569.04344106 277.8125 562.3125 C278.93874734 560.92313271 280.06504496 559.53380617 281.19140625 558.14453125 C295.40921923 540.30787873 307.72601533 521.2305911 318.8125 501.3125 C319.4725 502.3025 320.1325 503.2925 320.8125 504.3125 C320.1525 504.3125 319.4925 504.3125 318.8125 504.3125 C318.53486816 505.18777344 318.25723633 506.06304688 317.97119141 506.96484375 C316.90148791 510.05539882 315.67830297 512.92473122 314.2734375 515.875 C313.78004883 516.91148682 313.28666016 517.94797363 312.77832031 519.01586914 C300.09546359 545.29834525 285.07657839 571.23407047 265.1484375 592.765625 C263.26280177 594.82153552 261.43658806 596.90592416 259.6171875 599.01953125 C255.45561022 603.7872392 251.03844325 608.27853987 246.5625 612.75 C245.72203125 613.58966309 244.8815625 614.42932617 244.015625 615.29443359 C238.20507157 621.04782301 232.28886271 626.31792908 225.8125 631.3125 C224.12315177 632.72696218 222.4357365 634.14373534 220.75 635.5625 C207.28666561 646.53121374 192.92714918 656.02027526 178.05517578 664.95849609 C176.22241479 666.06501606 174.40395254 667.19518974 172.58984375 668.33203125 C128.30338674 695.54112066 69.70137009 710.27188303 17.93359375 710.515625 C16.43033035 710.52607849 16.43033035 710.52607849 14.896698 710.53674316 C11.68108875 710.55403557 8.46565381 710.56046275 5.25 710.5625 C4.1519101 710.56350708 3.05382019 710.56451416 1.92245483 710.56555176 C-14.33465731 710.55545592 -30.12590962 710.01392781 -46.1875 707.3125 C-47.96866387 707.04240015 -49.74991379 706.77286715 -51.53125 706.50390625 C-87.15288433 700.83090356 -121.91194073 689.30434851 -154.1875 673.3125 C-155.64857178 672.59126953 -155.64857178 672.59126953 -157.13916016 671.85546875 C-203.08721826 648.98327828 -245.29871906 615.6474986 -277.1875 575.3125 C-278.03699219 574.30445313 -278.88648438 573.29640625 -279.76171875 572.2578125 C-294.28188845 554.91301208 -306.80440083 535.38221072 -317.1875 515.3125 C-317.86189228 514.04292259 -318.53637024 512.7733907 -319.2109375 511.50390625 C-338.69383503 474.25662721 -348.77235442 434.70581742 -354.1875 393.3125 C-354.45904907 391.47026855 -354.45904907 391.47026855 -354.73608398 389.59082031 C-355.39630489 384.23552945 -355.36851979 378.87346766 -355.390625 373.484375 C-355.40121445 371.78345451 -355.40121445 371.78345451 -355.41201782 370.048172 C-355.63847674 322.95014707 -355.63847674 322.95014707 -352.1875 302.3125 C-351.98882324 301.07242187 -351.79014648 299.83234375 -351.58544922 298.5546875 C-342.92775699 245.09384041 -323.64070858 194.60329407 -292.1875 150.3125 C-291.39907715 149.20165039 -291.39907715 149.20165039 -290.59472656 148.06835938 C-278.91056936 131.71187234 -266.04204535 116.85193887 -252.1875 102.3125 C-251.43597656 101.5184375 -250.68445313 100.724375 -249.91015625 99.90625 C-245.60586897 95.46992936 -240.96532473 91.57548603 -236.14453125 87.7109375 C-233.63676241 85.67689514 -231.18648708 83.59287776 -228.74975586 81.47485352 C-212.47403878 67.41196248 -194.79091695 56.04359946 -176.1875 45.3125 C-175.31480469 44.80058105 -174.44210937 44.28866211 -173.54296875 43.76123047 C-121.16961906 13.08982982 -60.20944814 0.09689554 0 0 Z " fill="#E2AE38" transform="translate(509.1875,158.6875)"/>
<path d="M0 0 C2.81241016 0.5113473 5.41651219 1.13970297 8.1328125 2.05078125 C13.11753633 3.27430437 17.76520402 3.25336576 22.875 3.1875 C23.81730469 3.18685547 24.75960937 3.18621094 25.73046875 3.18554688 C31.55881102 3.14927089 37.21927846 2.74187905 43 2 C43.66644531 3.10214844 44.33289063 4.20429688 45.01953125 5.33984375 C50.1657234 13.82186275 55.39300748 22.2365191 60.81298828 30.54638672 C63.6592516 34.91425621 66.45901389 39.30743423 69.22460938 43.72680664 C79.18698029 59.63301534 89.72564056 75.15407843 100.2265625 90.70703125 C100.86749344 91.65653656 101.50842438 92.60604187 102.16877747 93.58432007 C105.40494896 98.37816121 108.64294254 103.17075104 111.88452148 107.9609375 C114.78092929 112.24198571 117.66026339 116.53417623 120.53448486 120.83013916 C121.83473942 122.75531303 123.15815769 124.66065216 124.49560547 126.56005859 C125.1557666 127.52379395 125.81592773 128.4875293 126.49609375 129.48046875 C127.04322021 130.25672607 127.59034668 131.0329834 128.15405273 131.83276367 C129 134 129 134 128.2578125 136.58691406 C127.84273437 137.38323242 127.42765625 138.17955078 127 139 C126.46503906 140.03253906 125.93007813 141.06507813 125.37890625 142.12890625 C124.77949219 143.26199219 124.18007813 144.39507813 123.5625 145.5625 C117.37045969 157.75153055 114.48707619 171.01993514 118.3125 184.5 C119.53631466 188.17791919 121.2324833 191.55408508 123 195 C116.76796783 200.26543126 110.41071675 205.21974268 103.74853516 209.92431641 C89.89394868 219.71252064 76.39122885 229.94193912 63.04101562 240.40429688 C55.42748764 246.35669148 47.7495346 252.22583696 40 258 C37.87841774 256.94652467 35.76737284 255.878426 33.66796875 254.78125 C32.84941406 254.3584375 32.03085937 253.935625 31.1875 253.5 C30.37667969 253.0771875 29.56585938 252.654375 28.73046875 252.21875 C22.82641844 249.58346574 17.24371771 248.61249935 10.8125 248.625 C10.07435059 248.62443604 9.33620117 248.62387207 8.57568359 248.62329102 C1.88135513 248.75613228 -3.83270411 250.4147194 -10 253 C-10.99 253.33 -11.98 253.66 -13 254 C-19.34206911 246.80089453 -25.6361281 239.59707362 -31.5 232 C-35.79984085 226.43637575 -40.31446515 221.10781848 -44.94873047 215.82080078 C-49.09652358 211.07644915 -53.13165292 206.24987462 -57.125 201.375 C-61.24272648 196.35080962 -65.36680085 191.33439338 -69.5625 186.375 C-70.20952881 185.61002197 -70.20952881 185.61002197 -70.86962891 184.82958984 C-73.37695555 181.8776689 -75.91193736 178.95166156 -78.46484375 176.0390625 C-79.05257568 175.36697754 -79.64030762 174.69489258 -80.24584961 174.00244141 C-81.38498185 172.70207082 -82.5275351 171.40468622 -83.67407227 170.11083984 C-89.58088893 163.37038879 -89.58088893 163.37038879 -91 160 C-90.34375 157.5234375 -90.34375 157.5234375 -89 155 C-88.5978125 154.12601563 -88.195625 153.25203125 -87.78125 152.3515625 C-86.92908759 150.53811932 -86.07492932 148.72561264 -85.21875 146.9140625 C-82.57092962 140.58305607 -81.63934575 134.96934402 -81.6875 128.1875 C-81.69096436 127.39504883 -81.69442871 126.60259766 -81.69799805 125.78613281 C-81.80906451 119.79467988 -82.61129928 114.54091308 -85 109 C-85.495 107.845 -85.99 106.69 -86.5 105.5 C-87.9048697 102.75424673 -87.9048697 102.75424673 -91 101 C-79.64870876 88.57312109 -79.64870876 88.57312109 -74.1875 83.1875 C-70.94633157 79.98691865 -67.91101597 76.68585815 -64.9453125 73.23046875 C-62.512763 70.44134071 -60.00817859 67.72085792 -57.5 65 C-53.85807003 61.04434343 -50.26499928 57.05437716 -46.7421875 52.9921875 C-44.68499601 50.63979365 -42.59403085 48.31965034 -40.5 46 C-35.67878725 40.65210014 -30.92105973 35.25697785 -26.25 29.77734375 C-20.68588113 23.25283778 -15.06559767 16.80870909 -9.26953125 10.48828125 C-6.1244021 7.04000712 -3.05384778 3.52911548 0 0 Z " fill="#002C61" transform="translate(417,395)"/>
</svg>
